HIERARCHY
ROOT Hips
{
     OFFSET 1.88212 96.90440 -13.34250
     CHANNELS 6 Xposition Yposition Zposition Zrotation Xrotation Yrotation
     JOINT Spine
     {
          OFFSET 0.00000 11.89050 0.00000
          CHANNELS 3 Zrotation Xrotation Yrotation
          JOINT Spine1
          {
               OFFSET -0.00000 25.65740 0.12766
               CHANNELS 3 Zrotation Xrotation Yrotation
               JOINT HEad
               {
                    OFFSET 0.00000 8.73416 0.01134
                    CHANNELS 3 Zrotation Xrotation Yrotation
                    End Site
                    {
                         OFFSET -0.29000 12.77420 2.51395
                    }
               }
               JOINT LeftShoulder1
               {
                    OFFSET 8.99000 -0.36225 -0.22000
                    CHANNELS 3 Zrotation Xrotation Yrotation
                    JOINT LeftArm
                    {
                         OFFSET 10.28270 -0.00338 0.32212
                         CHANNELS 3 Zrotation Xrotation Yrotation
                         JOINT LeftForeArm
                         {
                              OFFSET 32.76690 0.09914 -1.42434
                              CHANNELS 3 Zrotation Xrotation Yrotation
                              JOINT LeftHand
                              {
                                   OFFSET 27.56430 0.08536 1.02216
                                   CHANNELS 3 Zrotation Xrotation Yrotation
                                   End Site
                                   {
                                        OFFSET 16.74430 -0.60000 1.50291
                                   }
                              }
                         }
                    }
               }
               JOINT RightShoulder
               {
                    OFFSET -8.99000 -0.36225 -0.22000
                    CHANNELS 3 Zrotation Xrotation Yrotation
                    JOINT RightArm
                    {
                         OFFSET -10.28270 -0.00338 0.32212
                         CHANNELS 3 Zrotation Xrotation Yrotation
                         JOINT RightForeArm
                         {
                              OFFSET -32.89710 0.09914 -1.42434
                              CHANNELS 3 Zrotation Xrotation Yrotation
                              JOINT RightHand
                              {
                                   OFFSET -27.49210 0.08536 1.02216
                                   CHANNELS 3 Zrotation Xrotation Yrotation
                                   End Site
                                   {
                                        OFFSET -16.63120 -0.60000 1.50291
                                   }
                              }
                         }
                    }
               }
          }
     }
     JOINT LeftUpLeg
     {
          OFFSET 8.94580 -8.66707 0.10165
          CHANNELS 3 Zrotation Xrotation Yrotation
          JOINT LeftLeg
          {
               OFFSET 0.00000 -44.42270 1.37270
               CHANNELS 3 Zrotation Xrotation Yrotation
               JOINT LeftFoot
               {
                    OFFSET -0.25355 -42.09240 -1.46059
                    CHANNELS 3 Zrotation Xrotation Yrotation
                    JOINT LeftToes
                    {
                         OFFSET -0.04000 -4.41509 8.49910
                         CHANNELS 3 Zrotation Xrotation Yrotation
                         End Site
                         {
                              OFFSET 0.08000 -0.04745 9.77979
                         }
                    }
               }
          }
     }
     JOINT RightUpLeg
     {
          OFFSET -8.94580 -8.66707 0.10165
          CHANNELS 3 Zrotation Xrotation Yrotation
          JOINT RightLeg
          {
               OFFSET 0.00000 -44.42270 1.37270
               CHANNELS 3 Zrotation Xrotation Yrotation
               JOINT RightFoot
               {
                    OFFSET 0.25355 -42.09240 -1.46059
                    CHANNELS 3 Zrotation Xrotation Yrotation
                    JOINT RightToes
                    {
                         OFFSET 0.04000 -4.41509 8.49910
                         CHANNELS 3 Zrotation Xrotation Yrotation
                         End Site
                         {
                              OFFSET -0.08000 -0.13745 9.77979
                         }
                    }
               }
          }
     }
}
MOTION
Frames: 10
Frame Time: 0.01667
57.97087 90.67617 -31.40338 0.31229 4.97671 -166.49512 -4.82423 12.73842 0.82693 -0.00260 0.01088 -0.00852 1.89055 5.04686 0.22157 -2.04111 9.77201 0.77137 235.67583 -54.43341 261.94583 -35.22993 60.08914 -80.08321 18.45724 15.66584 -7.42663 19.31143 10.52732 -5.37049 87.71517 -1.12741 69.78173 9.18832 33.82741 106.38152 23.69567 9.61884 3.65917 21.36614 -14.43230 -3.78992 -25.36409 17.15177 74.13599 44.81927 -0.06271 0.08812 -45.18809 -18.35817 -65.14491 -18.29624 -2.42070 3.15774 35.73504 8.74525 -27.89054 -30.02245 0.00549 0.00782 5.15387 -38.60168 27.07746 
57.91804 90.34182 -31.21657 -0.41731 6.07739 -166.03308 -4.52049 14.23436 0.61031 -0.00415 0.01009 -0.00753 2.86014 3.91239 -2.25172 -2.27804 9.84713 0.20176 236.92795 -54.48119 262.56763 -32.59929 59.17493 -82.13482 18.38694 14.89191 -7.29911 18.77254 10.36400 -5.55050 88.23943 -1.03173 69.88576 9.01621 34.14834 106.48492 23.92714 9.50095 3.47259 21.79613 -13.08509 -5.01618 -26.33821 14.89441 75.03358 48.33401 -0.00468 0.01790 -48.16319 -18.49584 -66.41489 -18.35973 -2.82078 3.13686 35.61481 11.14561 -29.26087 -30.01509 0.00132 0.00592 5.40905 -40.43847 27.30607 
57.92003 90.04366 -31.05177 -1.07725 7.10873 -165.53764 -4.22539 15.70270 0.29593 -0.00538 0.00925 -0.00640 3.68376 2.82044 -4.21907 -2.50120 9.79011 -0.23625 238.26399 -54.44311 263.18353 -30.47628 58.18496 -83.59238 18.76356 13.49636 -7.83653 18.26688 10.14362 -5.55667 88.37147 -1.04344 70.01283 8.96894 34.32069 106.59449 23.24614 9.72645 3.59641 22.00813 -11.71402 -6.28121 -26.60075 12.59952 73.36060 51.75408 0.03172 -0.04959 -50.18475 -18.05143 -65.14961 -18.43715 -3.12897 3.11934 35.60637 13.64700 -30.57920 -29.88167 -0.00375 0.00058 5.51417 -42.19679 27.09301 
57.95629 89.79900 -30.91198 -1.65840 8.05951 -165.01573 -3.94337 17.11816 -0.09027 -0.00622 0.00841 -0.00516 4.39879 1.79923 -5.73596 -2.71030 9.61406 -0.54732 239.85410 -54.23902 263.94409 -28.64712 57.05938 -84.63013 18.79536 12.78287 -7.89707 17.84311 9.86487 -5.41854 88.22025 -1.15363 70.13183 8.99769 34.39177 106.72274 23.06120 9.74083 3.53908 22.08122 -10.36551 -7.53370 -27.20613 10.86032 71.80802 54.78725 0.02222 -0.04194 -52.09544 -18.02598 -63.90693 -18.52452 -3.41235 3.09937 35.83618 16.03171 -31.91691 -29.89729 -0.00229 -0.00127 5.58103 -44.07415 26.75441 
57.99397 89.60719 -30.81165 -2.16637 8.92760 -164.47678 -3.68608 18.46283 -0.51802 -0.00662 0.00759 -0.00394 5.03092 0.87105 -6.85692 -2.90480 9.33925 -0.73547 241.77097 -53.82845 264.92432 -26.98563 55.75684 -85.38268 19.05805 11.77477 -8.32877 17.52931 9.53480 -5.16863 87.86610 -1.36020 70.22013 9.08210 34.38448 106.87331 22.40071 9.94505 3.67813 22.09904 -9.10345 -8.72930 -27.90677 9.48557 70.32937 57.58374 0.02369 -0.03415 -53.90480 -18.19337 -62.69043 -18.63779 -3.68334 3.08053 36.26477 18.30161 -33.28370 -30.03436 -0.00146 -0.00274 5.67449 -45.91056 26.23654 
58.00470 89.45490 -30.76452 -2.61475 9.71523 -163.92972 -3.46722 19.72230 -0.95892 -0.00669 0.00680 -0.00293 5.59484 0.05252 -7.63242 -3.08796 8.99425 -0.81880 243.98767 -53.20465 266.11737 -25.42495 54.28212 -85.92618 19.07714 11.20379 -8.45397 17.33359 9.17117 -4.83688 87.37747 -1.65627 70.25909 9.19309 34.32832 107.05299 22.07857 10.03372 3.70843 22.11518 -7.97677 -9.83810 -28.58790 8.37411 68.93697 60.22430 0.02171 -0.03043 -55.64326 -18.40473 -61.52539 -18.79058 -3.93137 3.07203 36.81958 20.45275 -34.65889 -30.00332 -0.00137 -0.00091 5.56049 -47.74896 25.64325 
57.97402 89.32417 -30.77626 -3.01797 10.42516 -163.38013 -3.29815 20.88387 -1.39113 -0.00649 0.00598 -0.00220 6.09657 -0.64593 -8.10752 -3.26256 8.61224 -0.81472 246.41843 -52.38573 267.46863 -23.94792 52.65806 -86.32131 19.20476 10.48977 -8.77696 17.23897 8.79941 -4.44750 86.82302 -2.03228 70.24454 9.31426 34.23714 107.26478 21.49430 10.21873 3.84972 22.15204 -7.01296 -10.84324 -29.20784 7.48045 67.66029 62.74641 0.01755 -0.02731 -57.33664 -18.62483 -60.46226 -18.98542 -4.14392 3.08330 37.48469 22.44128 -36.03737 -30.00047 -0.00090 -0.00090 5.42928 -49.54824 24.99382 
57.90205 89.19968 -30.84267 -3.38719 11.05899 -162.83029 -3.18635 21.93714 -1.80030 -0.00622 0.00532 -0.00177 6.53652 -1.22104 -8.32125 -3.42776 8.22507 -0.74796 248.95120 -51.40574 268.89993 -22.55479 50.92657 -86.60569 19.15898 10.05564 -8.89775 17.22056 8.44513 -4.02474 86.26188 -2.46609 70.17809 9.42863 34.13000 107.51094 21.13918 10.31100 3.90843 22.21011 -6.22162 -11.73647 -29.75815 6.78359 66.52819 65.16788 0.01294 -0.02371 -59.00944 -18.85516 -59.54956 -19.21154 -4.31479 3.12134 38.21472 24.24423 -37.41018 -30.00043 -0.00051 -0.00073 5.25320 -51.30561 24.34453 
57.79854 89.07248 -30.95274 -3.72927 11.61740 -162.28113 -3.13555 22.87523 -2.17730 -0.00591 0.00484 -0.00158 6.91183 -1.67562 -8.30783 -3.57816 7.85938 -0.63689 251.47961 -50.30587 270.33701 -21.25813 49.13110 -86.81551 19.16023 9.56501 -9.12002 17.24938 8.12880 -3.59143 85.73963 -2.92881 70.06969 9.53281 34.01315 107.78726 20.66382 10.42569 4.01336 22.27952 -5.59965 -12.51406 -30.24182 6.27059 65.55837 67.49834 0.00878 -0.01960 -60.68367 -19.09724 -58.81347 -19.45177 -4.44315 3.18995 38.97203 25.84048 -38.77127 -30.00044 -0.00019 -0.00050 5.03991 -52.99256 23.74284 
57.67538 88.93970 -31.09428 -4.04710 12.10129 -161.73410 -3.14619 23.69538 -2.51592 -0.00558 0.00454 -0.00155 7.21905 -2.01690 -8.09801 -3.70487 7.53246 -0.49874 253.91251 -49.13192 271.71869 -20.06799 47.32376 -86.97660 19.05054 9.26815 -9.21003 17.30811 7.86081 -3.17060 85.27478 -3.38195 69.92992 9.62028 33.88621 108.08781 20.37594 10.47327 4.04439 22.34641 -5.13587 -13.17531 -30.66352 5.93024 64.75485 69.74399 0.00547 -0.01528 -62.37806 -19.35593 -58.25676 -19.68714 -4.53033 3.29044 39.72297 27.21511 -40.11276 -30.00045 0.00005 -0.00029 4.81427 -54.58709 23.24514 
